<?xml version="1.0" encoding="UTF-8"?> <svg xmlns="http://www.w3.org/2000/svg" xmlns:xlink="http://www.w3.org/1999/xlink" width="60px" height="35px" viewBox="0 0 60 35" version="1.1"><title>Roadside Icn</title><defs><polygon id="path-1" points="0 0 10.9433962 0 10.9433962 10.9433962 0 10.9433962"></polygon><polygon id="path-3" points="0 0 10.9433962 0 10.9433962 10.9433962 0 10.9433962"></polygon></defs><g id="Section-1-–-Landing-pages:-Pillars" stroke="none" stroke-width="1" fill="none" fill-rule="evenodd"><g id="Section-1-–-Page-1.A-–-AA-Home-" transform="translate(-290.000000, -241.000000)"><g id="Roadside-Icn" transform="translate(290.000000, 241.000000)"><path d="M18.145,17.057705 L5.928,17.057705 C7.566,12.2064158 9.727,8.05644558 10.674,8.05644558 L11.854,8.05644558 L15.484,8.05644558 L18.145,8.05644558 L18.145,17.057705 Z M59.031,20.6252408 L41.288,20.6252408 L38.268,17.6091695 L48.991,5.94749345 L48.991,14.3423417 C48.991,15.2984133 49.818,15.0936122 50.383,15.4232921 C51.012,15.7909351 50.886,16.7649892 50.181,16.957802 C49.383,17.1785876 49.033,16.0596741 48.18,16.4782677 C47.261,16.9288302 47.69,17.924863 48.317,18.3834177 C49.681,19.3844457 51.674,18.9029132 52.437,17.3983742 C53.176,15.9437867 52.454,14.116561 50.926,13.5471139 L50.926,3.46390511 C50.926,3.45791093 50.924,3.45291578 50.923,3.4469216 C50.92,3.20415734 50.796,2.93342023 50.626,2.76258612 L48,0.266010392 C47.623,-0.0916423137 47.029,-0.088645224 46.655,0.275001661 L33.233,13.3752808 L23.71,13.3752808 L23.71,3.46490414 C23.71,2.93042314 23.276,2.4978432 22.742,2.4978432 L19.112,2.4978432 C18.578,2.4978432 18.144,2.93042314 18.144,3.46490414 L18.144,6.12332272 L16.452,6.12332272 L16.452,5.264157 C16.452,1.69762024 10.888,1.69462315 10.888,5.264157 L10.888,6.12332272 L10.675,6.12332272 C7.77,6.12332272 5.056,13.4242332 3.857,17.1556099 C2.836,17.3813907 1.117,18.1356583 0.374,20.6252408 L3.443,20.6252408 C4.691,20.6252408 4.691,22.5593627 3.443,22.5593627 L0.037,22.5593627 C0.016,22.8320978 0,23.1078301 0,23.4015449 L0,28.8432608 C0,29.3777418 0.434,29.8113208 0.968,29.8113208 L7.34,29.8113208 C6.805,26.3047258 9.326,22.9280047 12.862,22.4844354 C17.034,21.9609438 20.629,25.675337 20,29.8113208 L43.63,29.8113208 C43.095,26.3047258 45.616,22.9280047 49.152,22.4844354 C53.324,21.9609438 56.919,25.675337 56.29,29.8113208 L59.032,29.8113208 C59.566,29.8113208 60,29.3777418 60,28.8432608 L60,21.5933008 C59.999,21.0578207 59.566,20.6252408 59.031,20.6252408 L59.031,20.6252408 Z" id="Fill-1" fill="#FFC20E"></path><g id="Group-5" transform="translate(8.301887, 23.396226)"><mask id="mask-2" fill="white"><use xlink:href="#path-1"></use></mask><g id="Clip-4"></g><path d="M5.47849046,7.29237127 C3.12308937,7.29237127 3.10493987,3.64698713 5.47849046,3.64698713 C7.83389156,3.64799442 7.83389156,7.29237127 5.47849046,7.29237127 M8.48424845,0.889025884 C5.89189562,-0.828404332 2.29829566,0.0318217117 0.735422506,2.70013411 C-0.727628432,5.19821442 0.0618745896,8.49809793 2.48584044,10.0745075 C4.9108146,11.6549462 8.24729672,11.0163241 9.93318312,8.67135189 C11.7289748,6.17629345 11.0604684,2.57019364 8.48424845,0.889025884" id="Fill-3" fill="#FFC20E" mask="url(#mask-2)"></path></g><path d="M16.6180723,24.2283727 C18.2946761,25.3230897 15.6444874,23.5819576 16.6180723,24.2283727" id="Fill-6" fill="#FFC20E"></path><path d="M52.8453155,24.2283727 C54.5207872,25.3230897 51.8694664,23.5819576 52.8453155,24.2283727" id="Fill-8" fill="#FFC20E"></path><g id="Group-12" transform="translate(44.528302, 23.396226)"><mask id="mask-4" fill="white"><use xlink:href="#path-3"></use></mask><g id="Clip-11"></g><path d="M5.48008541,7.29237127 C3.12354805,7.29237127 3.10338085,3.64698713 5.48008541,3.64698713 C7.83460606,3.64799442 7.83460606,7.29237127 5.48008541,7.29237127 M8.48499827,0.889025884 C5.89250466,-0.828404332 2.29870955,0.0318217117 0.734743161,2.70013411 C-0.727378867,5.19821442 0.0621670285,8.49809793 2.48626452,10.0745075 C4.91137036,11.6549462 8.24803367,11.0163241 9.93401162,8.67135189 C11.7278841,6.17629345 11.0613581,2.57019364 8.48499827,0.889025884" id="Fill-10" fill="#FFC20E" mask="url(#mask-4)"></path></g></g></g></g></svg> 